<svg width="56" height="56" viewBox="0 0 56 56" fill="none" xmlns="http://www.w3.org/2000/svg">
<path d="M53.0812 24.9667V51.3333C53.0812 52.5778 52.6633 53.6667 51.8274 54.6C50.9916 55.5333 50.0164 56 48.9019 56H7.03872C5.92423 56 4.94905 55.5333 4.11318 54.6C3.27731 53.6667 2.85937 52.5778 2.85937 51.3333V24.9667C1.55913 23.7222 0.700041 22.1926 0.282106 20.3778C-0.135829 18.563 -0.0893918 16.7481 0.421418 14.9333L3.41662 4.43333C3.78812 3.03333 4.43824 1.94444 5.36698 1.16667C6.29573 0.388889 7.36379 0 8.57115 0H47.0908C48.3911 0 49.5288 0.401852 50.504 1.20556C51.4792 2.00926 52.1525 3.08519 52.524 4.43333L55.5889 14.9333C56.0997 16.7481 56.1345 18.563 55.6933 20.3778C55.2522 22.1926 54.3815 23.7222 53.0812 24.9667ZM34.2742 22.5556C35.6208 22.5556 36.7586 22.063 37.6873 21.0778C38.616 20.0926 38.9875 18.9 38.8018 17.5L37.0604 4.66667H30.0948V17.5C30.0948 18.8481 30.4895 20.0278 31.279 21.0389C32.0684 22.05 33.0668 22.5556 34.2742 22.5556ZM21.2485 22.5556C22.5488 22.5556 23.6516 22.063 24.5572 21.0778C25.4627 20.0926 25.9155 18.9 25.9155 17.5V4.66667H18.9499L17.2085 17.5C17.0227 18.8481 17.3478 20.0278 18.1837 21.0389C19.0195 22.05 20.0412 22.5556 21.2485 22.5556ZM8.57115 22.5556C9.68565 22.5556 10.6492 22.1278 11.4619 21.2722C12.2745 20.4167 12.7505 19.3667 12.8898 18.1222L14.7009 4.66667H7.73528L4.53111 16.0222C4.06674 17.6296 4.25249 19.1204 5.08836 20.4944C5.92423 21.8685 7.08516 22.5556 8.57115 22.5556ZM47.3695 22.5556C48.8555 22.5556 50.028 21.8815 50.8871 20.5333C51.7462 19.1852 51.9435 17.6815 51.4792 16.0222L48.275 4.66667H41.3094L43.1205 18.1222C43.2598 19.3667 43.7358 20.4167 44.5484 21.2722C45.3611 22.1278 46.3014 22.5556 47.3695 22.5556ZM7.03872 51.3333H48.9019V27.1444C48.9483 27.1963 48.7974 27.2222 48.4491 27.2222C48.1009 27.2222 47.741 27.2222 47.3695 27.2222C46.2085 27.2222 45.1057 26.95 44.0608 26.4056C43.016 25.8611 41.9827 25.0185 40.9611 23.8778C40.2181 24.9148 39.2894 25.7315 38.1749 26.3278C37.0604 26.9241 35.8298 27.2222 34.4831 27.2222C33.09 27.2222 31.8943 27.0019 30.8959 26.5611C29.8975 26.1204 28.9339 25.3815 28.0051 24.3444C27.3086 25.2778 26.4263 25.9907 25.3582 26.4833C24.2902 26.9759 23.0828 27.2222 21.7361 27.2222C20.2966 27.2222 19.0195 26.937 17.905 26.3667C16.7905 25.7963 15.8386 24.9667 15.0491 23.8778C13.9347 24.9667 12.8434 25.7963 11.7753 26.3667C10.7073 26.937 9.63921 27.2222 8.57115 27.2222C8.24609 27.2222 7.93264 27.2222 7.6308 27.2222C7.32896 27.2222 7.1316 27.1963 7.03872 27.1444V51.3333ZM48.9019 51.3333H7.03872C7.1316 51.3333 7.32896 51.3333 7.6308 51.3333C7.93264 51.3333 8.24609 51.3333 8.57115 51.3333C9.36059 51.3333 10.3009 51.3333 11.3922 51.3333C12.4835 51.3333 13.7025 51.3333 15.0491 51.3333C15.4671 51.3333 15.9315 51.3333 16.4423 51.3333C16.9531 51.3333 17.4987 51.3333 18.0792 51.3333C18.6596 51.3333 19.2517 51.3333 19.8554 51.3333C20.4591 51.3333 21.086 51.3333 21.7361 51.3333C22.2469 51.3333 22.781 51.3333 23.3382 51.3333C23.8954 51.3333 24.4527 51.3333 25.0099 51.3333C25.5672 51.3333 26.1012 51.3333 26.612 51.3333C27.1228 51.3333 27.5872 51.3333 28.0051 51.3333C29.0268 51.3333 30.0484 51.3333 31.07 51.3333C32.0916 51.3333 33.2293 51.3333 34.4831 51.3333C35.1333 51.3333 35.7718 51.3333 36.3987 51.3333C37.0256 51.3333 37.6176 51.3333 38.1749 51.3333C38.7321 51.3333 39.243 51.3333 39.7073 51.3333C40.1717 51.3333 40.5896 51.3333 40.9611 51.3333C42.0292 51.3333 43.0972 51.3333 44.1653 51.3333C45.2334 51.3333 46.3014 51.3333 47.3695 51.3333C47.741 51.3333 48.1009 51.3333 48.4491 51.3333C48.7974 51.3333 48.9483 51.3333 48.9019 51.3333Z" fill="#323238"/>
</svg>
