<svg width="48" height="56" viewBox="0 0 48 56" fill="none" xmlns="http://www.w3.org/2000/svg">
<path d="M4.42105 32.4211C4.42105 35.5158 5.12105 38.4263 6.52105 41.1526C7.92105 43.8789 9.87368 46.1509 12.3789 47.9684C12.1825 47.3789 12.0351 46.7772 11.9368 46.1632C11.8386 45.5491 11.7895 44.9474 11.7895 44.3579C11.7895 42.786 12.0842 41.3123 12.6737 39.9368C13.2632 38.5614 14.1228 37.3088 15.2526 36.1789L23.5789 28L31.9053 36.1789C33.0351 37.3088 33.8947 38.5614 34.4842 39.9368C35.0737 41.3123 35.3684 42.786 35.3684 44.3579C35.3684 44.9474 35.3193 45.5491 35.2211 46.1632C35.1228 46.7772 34.9754 47.3789 34.7789 47.9684C37.2842 46.1509 39.2368 43.8789 40.6368 41.1526C42.0368 38.4263 42.7368 35.5158 42.7368 32.4211C42.7368 29.7684 42.1719 27.1772 41.0421 24.6474C39.9123 22.1175 38.2912 19.7965 36.1789 17.6842C35.1474 18.4211 34.0667 18.9982 32.9368 19.4158C31.807 19.8333 30.6772 20.0421 29.5474 20.0421C26.5509 20.0421 24.0702 19.0228 22.1053 16.9842C20.1403 14.9456 19.1579 12.3789 19.1579 9.28421V7.81053C16.8982 9.43158 14.8596 11.2246 13.0421 13.1895C11.2246 15.1544 9.67719 17.2053 8.4 19.3421C7.12281 21.4789 6.14035 23.6649 5.45263 25.9C4.76491 28.1351 4.42105 30.3088 4.42105 32.4211ZM23.5789 34.1895L18.3474 39.3474C17.6596 40.0351 17.1316 40.7965 16.7632 41.6316C16.3947 42.4667 16.2105 43.3754 16.2105 44.3579C16.2105 46.3719 16.9228 48.0789 18.3474 49.4789C19.7719 50.8789 21.5158 51.5789 23.5789 51.5789C25.6421 51.5789 27.386 50.8789 28.8105 49.4789C30.2351 48.0789 30.9474 46.3719 30.9474 44.3579C30.9474 43.3754 30.7632 42.4667 30.3947 41.6316C30.0263 40.7965 29.4982 40.0351 28.8105 39.3474L23.5789 34.1895ZM23.5789 0V9.72632C23.5789 11.3965 24.1561 12.7965 25.3105 13.9263C26.4649 15.0561 27.8772 15.6211 29.5474 15.6211C30.4316 15.6211 31.2544 15.4368 32.0158 15.0684C32.7772 14.7 33.4526 14.1474 34.0421 13.4105L35.3684 11.7895C39.0035 13.8526 41.8772 16.7263 43.9895 20.4105C46.1017 24.0947 47.1579 28.0982 47.1579 32.4211C47.1579 39.0035 44.8737 44.5789 40.3053 49.1474C35.7368 53.7158 30.1614 56 23.5789 56C16.9965 56 11.4211 53.7158 6.85263 49.1474C2.28421 44.5789 0 39.0035 0 32.4211C0 26.1333 2.11228 20.0789 6.33684 14.2579C10.5614 8.43684 16.3088 3.68421 23.5789 0Z" fill="#323238"/>
</svg>
