<svg width="45" height="56" viewBox="0 0 45 56" fill="none" xmlns="http://www.w3.org/2000/svg">
<path d="M4.83553 56V51.8H20.0329V39.2H13.8158C9.99342 39.2 6.7352 37.835 4.04112 35.105C1.34704 32.375 0 29.0733 0 25.2C0 22.4 0.759868 19.8217 2.2796 17.465C3.79934 15.1083 5.84868 13.3933 8.42763 12.32C8.84211 8.82 10.3503 5.89167 12.9523 3.535C15.5543 1.17833 18.6053 0 22.1053 0C25.6053 0 28.6562 1.17833 31.2582 3.535C33.8602 5.89167 35.3684 8.82 35.7829 12.32C38.3618 13.3933 40.4112 15.1083 41.9309 17.465C43.4507 19.8217 44.2105 22.4 44.2105 25.2C44.2105 29.0733 42.8635 32.375 40.1694 35.105C37.4753 37.835 34.2171 39.2 30.3947 39.2H24.1776V51.8H40.0658V56H4.83553ZM13.8158 35H30.3947C33.0658 35 35.3454 34.0433 37.2336 32.13C39.1217 30.2167 40.0658 27.9067 40.0658 25.2C40.0658 23.24 39.5132 21.455 38.4079 19.845C37.3026 18.235 35.875 17.0333 34.125 16.24L31.9145 15.26L31.6382 12.81C31.3158 10.3367 30.2566 8.28333 28.4605 6.65C26.6645 5.01667 24.5461 4.2 22.1053 4.2C19.6645 4.2 17.5461 5.01667 15.75 6.65C13.9539 8.28333 12.8947 10.3367 12.5724 12.81L12.2961 15.26L10.0855 16.24C8.33553 17.0333 6.90789 18.235 5.80263 19.845C4.69737 21.455 4.14474 23.24 4.14474 25.2C4.14474 27.9067 5.08882 30.2167 6.97697 32.13C8.86513 34.0433 11.1447 35 13.8158 35Z" fill="#323238"/>
</svg>
