<svg width="48" height="48" viewBox="0 0 48 48" fill="none" xmlns="http://www.w3.org/2000/svg">
<g opacity="0.48">
<path fill-rule="evenodd" clip-rule="evenodd" d="M0 24C0 10.7496 10.7496 0 24 0C37.2504 0 48 10.7496 48 24C48 37.2504 37.2504 48 24 48C10.7496 48 0 37.2504 0 24ZM24 3.69231C12.7888 3.69231 3.69231 12.7888 3.69231 24C3.69231 35.2112 12.7888 44.3077 24 44.3077C35.2112 44.3077 44.3077 35.2112 44.3077 24C44.3077 12.7888 35.2112 3.69231 24 3.69231Z" fill="#42D3FF"/>
<path fill-rule="evenodd" clip-rule="evenodd" d="M18.4615 14.7692C19.4811 14.7692 20.3077 15.5958 20.3077 16.6154V31.3846C20.3077 32.4042 19.4811 33.2308 18.4615 33.2308C17.4419 33.2308 16.6154 32.4042 16.6154 31.3846V16.6154C16.6154 15.5958 17.4419 14.7692 18.4615 14.7692Z" fill="#42D3FF"/>
<path fill-rule="evenodd" clip-rule="evenodd" d="M29.5385 14.7692C30.5581 14.7692 31.3846 15.5958 31.3846 16.6154V31.3846C31.3846 32.4042 30.5581 33.2308 29.5385 33.2308C28.5189 33.2308 27.6923 32.4042 27.6923 31.3846V16.6154C27.6923 15.5958 28.5189 14.7692 29.5385 14.7692Z" fill="#42D3FF"/>
</g>
</svg>
