<svg width="53" height="56" viewBox="0 0 53 56" fill="none" xmlns="http://www.w3.org/2000/svg">
<path d="M10.5263 45.3333C9.91228 45.3333 9.375 45.1 8.91447 44.6333C8.45395 44.1667 8.22368 43.6222 8.22368 43C8.22368 42.3778 8.45395 41.8333 8.91447 41.3667C9.375 40.9 9.91228 40.6667 10.5263 40.6667C11.1404 40.6667 11.6776 40.9 12.1382 41.3667C12.5987 41.8333 12.8289 42.3778 12.8289 43C12.8289 43.6222 12.5987 44.1667 12.1382 44.6333C11.6776 45.1 11.1404 45.3333 10.5263 45.3333ZM42.1053 45.3333C41.4912 45.3333 40.9539 45.1 40.4934 44.6333C40.0329 44.1667 39.8026 43.6222 39.8026 43C39.8026 42.3778 40.0329 41.8333 40.4934 41.3667C40.9539 40.9 41.4912 40.6667 42.1053 40.6667C42.7193 40.6667 43.2566 40.9 43.7171 41.3667C44.1776 41.8333 44.4079 42.3778 44.4079 43C44.4079 43.6222 44.1776 44.1667 43.7171 44.6333C43.2566 45.1 42.7193 45.3333 42.1053 45.3333ZM18.4211 56C17.807 56 17.2697 55.7667 16.8092 55.3C16.3487 54.8333 16.1184 54.2889 16.1184 53.6667C16.1184 53.0444 16.3487 52.5 16.8092 52.0333C17.2697 51.5667 17.807 51.3333 18.4211 51.3333C19.0351 51.3333 19.5724 51.5667 20.0329 52.0333C20.4934 52.5 20.7237 53.0444 20.7237 53.6667C20.7237 54.2889 20.4934 54.8333 20.0329 55.3C19.5724 55.7667 19.0351 56 18.4211 56ZM26.3158 45.3333C25.7018 45.3333 25.1645 45.1 24.7039 44.6333C24.2434 44.1667 24.0132 43.6222 24.0132 43C24.0132 42.3778 24.2434 41.8333 24.7039 41.3667C25.1645 40.9 25.7018 40.6667 26.3158 40.6667C26.9298 40.6667 27.4671 40.9 27.9276 41.3667C28.3882 41.8333 28.6184 42.3778 28.6184 43C28.6184 43.6222 28.3882 44.1667 27.9276 44.6333C27.4671 45.1 26.9298 45.3333 26.3158 45.3333ZM34.2105 56C33.5965 56 33.0592 55.7667 32.5987 55.3C32.1382 54.8333 31.9079 54.2889 31.9079 53.6667C31.9079 53.0444 32.1382 52.5 32.5987 52.0333C33.0592 51.5667 33.5965 51.3333 34.2105 51.3333C34.8246 51.3333 35.3618 51.5667 35.8224 52.0333C36.2829 52.5 36.5132 53.0444 36.5132 53.6667C36.5132 54.2889 36.2829 54.8333 35.8224 55.3C35.3618 55.7667 34.8246 56 34.2105 56ZM13.8158 36C10 36 6.74342 34.6333 4.04605 31.9C1.34868 29.1667 0 25.8667 0 22C0 18.4889 1.23903 15.3556 3.7171 12.6C6.19518 9.84444 9.27632 8.33333 12.9605 8.06667C14.364 5.57778 16.2171 3.61111 18.5197 2.16667C20.8224 0.722222 23.4211 0 26.3158 0C30.307 0 33.6513 1.27778 36.3487 3.83333C39.0461 6.38889 40.7018 9.55556 41.3158 13.3333C44.7807 13.5111 47.5329 14.7 49.5724 16.9C51.6118 19.1 52.6316 21.6889 52.6316 24.6667C52.6316 27.7778 51.5461 30.4444 49.375 32.6667C47.2039 34.8889 44.5614 36 41.4474 36H13.8158ZM13.8158 32H41.4474C43.4649 32 45.1754 31.2778 46.5789 29.8333C47.9825 28.3889 48.6842 26.6444 48.6842 24.6C48.6842 22.6 47.9825 20.8889 46.5789 19.4667C45.1754 18.0444 43.4649 17.3333 41.4474 17.3333H37.5V15.3333C37.5 12.1778 36.4145 9.5 34.2434 7.3C32.0724 5.1 29.4298 4 26.3158 4C24.0789 4 22.0285 4.61111 20.1645 5.83333C18.3004 7.05556 16.9298 8.71111 16.0526 10.8L15.5263 12H13.6842C10.9649 12.0889 8.66228 13.1 6.77632 15.0333C4.89035 16.9667 3.94737 19.2889 3.94737 22C3.94737 24.7556 4.91228 27.1111 6.8421 29.0667C8.77193 31.0222 11.0965 32 13.8158 32Z" fill="white"/>
</svg>
