<svg width="48" height="48" viewBox="0 0 48 48" fill="none" xmlns="http://www.w3.org/2000/svg">
<path d="M24 48C20.6 48 17.44 47.39 14.52 46.17C11.6 44.95 9.06 43.26 6.9 41.1C4.74 38.94 3.05 36.4 1.83 33.48C0.61 30.56 0 27.4 0 24C0 20.64 0.61 17.5 1.83 14.58C3.05 11.66 4.74 9.12 6.9 6.96C9.06 4.8 11.6 3.1 14.52 1.86C17.44 0.62 20.6 0 24 0C27.36 0 30.5 0.62 33.42 1.86C36.34 3.1 38.88 4.8 41.04 6.96C43.2 9.12 44.9 11.66 46.14 14.58C47.38 17.5 48 20.64 48 24C48 27.4 47.38 30.56 46.14 33.48C44.9 36.4 43.2 38.94 41.04 41.1C38.88 43.26 36.34 44.95 33.42 46.17C30.5 47.39 27.36 48 24 48ZM24 44.4C29.8 44.4 34.65 42.45 38.55 38.55C42.45 34.65 44.4 29.8 44.4 24C44.4 18.2 42.45 13.35 38.55 9.45C34.65 5.55 29.8 3.6 24 3.6C18.2 3.6 13.35 5.55 9.45 9.45C5.55 13.35 3.6 18.2 3.6 24C3.6 29.8 5.55 34.65 9.45 38.55C13.35 42.45 18.2 44.4 24 44.4ZM15 33H33V15H15V33Z" fill="#323238"/>
</svg>
