<svg width="48" height="48" viewBox="0 0 48 48" fill="none" xmlns="http://www.w3.org/2000/svg">
<path d="M22.38 36H25.98V26.04H36V22.44H25.98V12H22.38V22.44H12V26.04H22.38V36ZM24 48C20.6 48 17.44 47.39 14.52 46.17C11.6 44.95 9.06 43.26 6.9 41.1C4.74 38.94 3.05 36.4 1.83 33.48C0.61 30.56 0 27.4 0 24C0 20.64 0.61 17.5 1.83 14.58C3.05 11.66 4.74 9.12 6.9 6.96C9.06 4.8 11.6 3.1 14.52 1.86C17.44 0.62 20.6 0 24 0C27.36 0 30.5 0.62 33.42 1.86C36.34 3.1 38.88 4.8 41.04 6.96C43.2 9.12 44.9 11.66 46.14 14.58C47.38 17.5 48 20.64 48 24C48 27.4 47.38 30.56 46.14 33.48C44.9 36.4 43.2 38.94 41.04 41.1C38.88 43.26 36.34 44.95 33.42 46.17C30.5 47.39 27.36 48 24 48ZM24 44.4C29.6 44.4 34.4 42.4 38.4 38.4C42.4 34.4 44.4 29.6 44.4 24C44.4 18.4 42.4 13.6 38.4 9.6C34.4 5.6 29.6 3.6 24 3.6C18.4 3.6 13.6 5.6 9.6 9.6C5.6 13.6 3.6 18.4 3.6 24C3.6 29.6 5.6 34.4 9.6 38.4C13.6 42.4 18.4 44.4 24 44.4Z" fill="#323238"/>
</svg>
